<?xml version="1.0" encoding="utf-8"?>
<!-- Generator: Adobe Illustrator 19.2.1, SVG Export Plug-In . SVG Version: 6.00 Build 0)  -->
<svg version="1.1" id="Capa_1" xmlns="http://www.w3.org/2000/svg" xmlns:xlink="http://www.w3.org/1999/xlink" x="0px" y="0px"
	 viewBox="0 0 95.8 163.2" style="enable-background:new 0 0 95.8 163.2;" xml:space="preserve">
<style type="text/css">
	.st0{fill:#FFFFFF;}
</style>
<title>logo</title>
<polygon class="st0" points="54.5,56.4 54.5,57.7 49.8,57.7 49.8,53 51.1,53 51.1,50.2 45,50.2 45,53 46.3,53 46.3,57.7 41.6,57.7 
	41.6,56.4 38.8,56.4 38.8,62.5 41.6,62.5 41.6,61.2 46.3,61.2 46.3,65.9 45,65.9 45,68.7 51.1,68.7 51.1,65.9 49.8,65.9 49.8,61.2 
	54.5,61.2 54.5,62.5 57.3,62.5 57.3,56.4 "/>
<polygon class="st0" points="54.5,111.9 54.5,113.2 49.8,113.2 49.8,108.5 51.1,108.5 51.1,105.7 45,105.7 45,108.5 46.3,108.5 
	46.3,113.2 41.6,113.2 41.6,111.9 38.8,111.9 38.8,118 41.6,118 41.6,116.7 46.3,116.7 46.3,121.5 45,121.5 45,124.3 51.1,124.3 
	51.1,121.5 49.8,121.5 49.8,116.7 54.5,116.7 54.5,118 57.3,118 57.3,111.9 "/>
<polygon class="st0" points="30.5,84.4 30.5,85.7 25.8,85.7 25.8,81 27.1,81 27.1,78.2 21,78.2 21,81 22.3,81 22.3,85.7 17.6,85.7 
	17.6,84.4 14.8,84.4 14.8,90.5 17.6,90.5 17.6,89.2 22.3,89.2 22.3,93.9 21,93.9 21,96.7 27.1,96.7 27.1,93.9 25.8,93.9 25.8,89.2 
	30.5,89.2 30.5,90.5 33.3,90.5 33.3,84.4 "/>
<polygon class="st0" points="54.5,84.4 54.5,85.7 49.8,85.7 49.8,81 51.1,81 51.1,78.2 45,78.2 45,81 46.3,81 46.3,85.7 41.6,85.7 
	41.6,84.4 38.8,84.4 38.8,90.5 41.6,90.5 41.6,89.2 46.3,89.2 46.3,93.9 45,93.9 45,96.7 51.1,96.7 51.1,93.9 49.8,93.9 49.8,89.2 
	54.5,89.2 54.5,90.5 57.3,90.5 57.3,84.4 "/>
<path class="st0" d="M48.1,142.8c-42.1,0-48-41.9-48-42.3V31.3h95.8v69.2C95.8,100.9,90.2,142.8,48.1,142.8z M3.5,100.2
	c0.4,2.7,6.2,39.2,44.6,39.2s43.9-36.5,44.3-39.1V34.8H3.5L3.5,100.2L3.5,100.2z"/>
<polygon class="st0" points="30.5,56.4 30.5,57.7 25.8,57.7 25.8,53 27.1,53 27.1,50.2 21,50.2 21,53 22.3,53 22.3,57.7 17.6,57.7 
	17.6,56.4 14.8,56.4 14.8,62.5 17.6,62.5 17.6,61.2 22.3,61.2 22.3,65.9 21,65.9 21,68.7 27.1,68.7 27.1,65.9 25.8,65.9 25.8,61.2 
	30.5,61.2 30.5,62.5 33.3,62.5 33.3,56.4 "/>
<g id="_Grupo_">
	<polygon class="st0" points="78.1,56.4 78.1,57.7 73.3,57.7 73.3,53 74.6,53 74.6,50.2 68.5,50.2 68.5,53 69.8,53 69.8,57.7 
		65.1,57.7 65.1,56.4 62.3,56.4 62.3,62.5 65.1,62.5 65.1,61.2 69.8,61.2 69.8,65.9 68.5,65.9 68.5,68.7 74.6,68.7 74.6,65.9 
		73.3,65.9 73.3,61.2 78.1,61.2 78.1,62.5 80.8,62.5 80.8,56.4 	"/>
</g>
<g id="_Grupo_2">
	<polygon class="st0" points="78.1,84.4 78.1,85.7 73.3,85.7 73.3,81 74.6,81 74.6,78.2 68.5,78.2 68.5,81 69.8,81 69.8,85.7 
		65.1,85.7 65.1,84.4 62.3,84.4 62.3,90.5 65.1,90.5 65.1,89.2 69.8,89.2 69.8,93.9 68.5,93.9 68.5,96.7 74.6,96.7 74.6,93.9 
		73.3,93.9 73.3,89.2 78.1,89.2 78.1,90.5 80.8,90.5 80.8,84.4 	"/>
</g>
<polygon class="st0" points="48,142.2 51.2,142.2 49.6,146 48,149.8 46.4,146 44.8,142.2 "/>
<path class="st0" d="M6.4,156.3h0.7l3,6.8h-1l-0.9-2H5.3l-0.8,2h-1L6.4,156.3z M7.8,160.3l-1.1-2.4l-1,2.4H7.8L7.8,160.3z"/>
<path class="st0" d="M18.1,163.1h-2.3v-6.8h1.8c0.4,0,0.9,0.1,1.3,0.2c0.3,0.1,0.5,0.3,0.7,0.6c0.2,0.3,0.3,0.6,0.2,0.9
	c0,0.6-0.4,1.2-1,1.4c0.4,0.1,0.9,0.3,1.2,0.6c0.3,0.3,0.4,0.7,0.4,1.1c0,0.3-0.1,0.6-0.3,0.9c-0.2,0.3-0.5,0.5-0.8,0.7
	C19,163.1,18.6,163.2,18.1,163.1z M17.6,157.2h-0.8v2h0.6c0.4,0,0.8-0.1,1.1-0.3c0.2-0.2,0.3-0.5,0.3-0.8c0-0.6-0.5-1-1-1
	C17.7,157.2,17.7,157.2,17.6,157.2L17.6,157.2z M17.7,160.1h-0.9v2.1h1c0.4,0,0.7,0,1.1-0.1c0.2-0.1,0.3-0.2,0.5-0.4
	c0.1-0.2,0.2-0.4,0.2-0.6c0-0.2-0.1-0.4-0.2-0.6c-0.1-0.2-0.3-0.3-0.5-0.4C18.4,160.2,18,160.1,17.7,160.1L17.7,160.1z"/>
<path class="st0" d="M29.7,156.3c1,0,1.9,0.3,2.6,1c0.7,0.7,1,1.6,1,2.5c0,0.9-0.4,1.8-1,2.5c-0.7,0.7-1.7,1-2.7,1
	c-0.9,0-1.9-0.3-2.5-1c-0.7-0.6-1-1.5-1-2.5c0-0.9,0.3-1.9,1-2.5C27.7,156.6,28.7,156.2,29.7,156.3z M29.7,157.2
	c-0.7,0-1.4,0.2-1.9,0.7c-0.5,0.5-0.8,1.2-0.8,1.8c0,0.7,0.3,1.3,0.8,1.8c0.5,0.5,1.2,0.8,1.9,0.7c0.7,0,1.4-0.2,1.9-0.7
	c0.5-0.5,0.8-1.1,0.8-1.8c0-0.7-0.3-1.3-0.8-1.8C31,157.5,30.4,157.2,29.7,157.2L29.7,157.2z"/>
<path class="st0" d="M43.1,159.8h2.3v2.9c-0.8,0.3-1.6,0.5-2.5,0.5c-1,0-2-0.3-2.7-1c-0.7-0.6-1-1.5-1-2.4c0-0.9,0.3-1.9,1-2.5
	c0.7-0.7,1.6-1,2.6-1c0.4,0,0.7,0,1.1,0.1c0.4,0.1,0.9,0.3,1.3,0.4v1c-0.7-0.4-1.6-0.7-2.4-0.7c-0.7,0-1.4,0.3-1.9,0.8
	c-0.5,0.5-0.8,1.2-0.8,1.8c0,0.7,0.3,1.4,0.8,1.9c0.5,0.5,1.3,0.8,2,0.7c0.5,0,0.9-0.1,1.4-0.3h0.1v-1.4h-1.3L43.1,159.8L43.1,159.8
	z"/>
<path class="st0" d="M53.9,156.3h0.7l3,6.8h-1l-0.9-2h-2.9l-0.8,2h-1L53.9,156.3z M55.3,160.3l-1.1-2.4l-1,2.4H55.3L55.3,160.3z"/>
<path class="st0" d="M63.3,163.1v-6.8h2.3c0.7,0,1.5,0.1,2.2,0.4c0.5,0.3,1,0.7,1.3,1.2c0.3,0.5,0.5,1.1,0.5,1.8
	c0,0.4-0.1,0.9-0.3,1.3c-0.2,0.4-0.4,0.8-0.7,1.1c-0.3,0.3-0.7,0.6-1.2,0.7c-0.2,0.1-0.5,0.2-0.7,0.2c-0.4,0-0.8,0.1-1.2,0.1
	L63.3,163.1L63.3,163.1z M65.5,157.2h-1.2v5h1.2c0.4,0,0.8,0,1.1-0.1c0.2-0.1,0.5-0.1,0.7-0.2c0.2-0.1,0.3-0.2,0.5-0.4
	c0.5-0.5,0.7-1.1,0.7-1.8c0-0.7-0.2-1.3-0.7-1.8c-0.2-0.2-0.4-0.3-0.6-0.4c-0.2-0.1-0.4-0.2-0.7-0.2
	C66.2,157.2,65.8,157.2,65.5,157.2z"/>
<path class="st0" d="M79,156.3c1,0,1.9,0.3,2.6,1c0.7,0.7,1,1.6,1,2.5c0,0.9-0.4,1.8-1,2.5c-0.7,0.7-1.7,1-2.7,1
	c-0.9,0-1.9-0.3-2.5-1c-0.7-0.6-1-1.5-1-2.5c0-0.9,0.3-1.9,1-2.5C77.1,156.6,78,156.2,79,156.3z M79,157.2c-0.7,0-1.4,0.2-1.9,0.7
	c-0.5,0.5-0.8,1.2-0.8,1.8c0,0.7,0.3,1.3,0.8,1.8c0.5,0.5,1.2,0.8,1.9,0.7c0.7,0,1.4-0.2,1.9-0.7c0.5-0.5,0.8-1.1,0.8-1.8
	c0-0.7-0.3-1.3-0.8-1.8C80.4,157.5,79.7,157.2,79,157.2L79,157.2z"/>
<path class="st0" d="M90.5,160.3l-0.7-0.4c-0.4-0.2-0.7-0.5-1-0.8c-0.2-0.3-0.3-0.6-0.3-0.9c0-0.5,0.2-1,0.5-1.3
	c0.4-0.3,0.9-0.5,1.4-0.5c0.6,0,1.1,0.2,1.5,0.5v1.1c-0.4-0.4-1-0.7-1.6-0.7c-0.3,0-0.6,0.1-0.8,0.2c-0.2,0.1-0.3,0.3-0.3,0.6
	c0,0.2,0.1,0.4,0.2,0.6c0.2,0.2,0.5,0.4,0.7,0.6l0.7,0.4c0.7,0.3,1.2,1.1,1.2,1.9c0,0.5-0.2,1-0.5,1.3c-0.4,0.3-0.9,0.5-1.4,0.5
	c-0.7,0-1.3-0.2-1.8-0.6v-1.3c0.4,0.6,1.1,1,1.8,1c0.3,0,0.5-0.1,0.8-0.2c0.2-0.2,0.3-0.4,0.3-0.6C91.3,161,91,160.6,90.5,160.3z"/>
<path class="st0" d="M17,23.5H7v-2.8h2.8V2.9H7V0.1h9.5c4,0,6.8,2.5,6.8,6c0,2-1,3.8-2.8,4.8c2.3,0.9,3.8,3.2,3.8,5.6
	C24.4,20.7,21.4,23.5,17,23.5z M13.2,20.8h3.3c2.2,0.2,4.1-1.4,4.3-3.5c0-0.2,0-0.4,0-0.6c0-2.8-2.2-4.1-4.3-4.1h-3.2V20.8
	L13.2,20.8z M13.2,9.8h3.1c1.9,0.1,3.5-1.3,3.6-3.2c0-0.2,0-0.3,0-0.5c0-2-1.5-3.3-3.8-3.3h-3L13.2,9.8L13.2,9.8z"/>
<path class="st0" d="M59.8,23.5h-8.7v-2.8h2.8l-1.8-4.9H44l-1.8,4.9H45v2.8h-8.5v-2.8h2.3L46.4,0h3.5l7.6,20.7h2.3L59.8,23.5
	L59.8,23.5z M45,13.1h6.1l-3-8.9L45,13.1z"/>
<path class="st0" d="M83.2,23.5h-9.5v-2.8h3v-7.2L70.4,2.9h-2.7V0.1h8.7v2.8h-2.3l4.5,7.4L83,2.8h-2.3V0.1H89v2.8h-2.7l-6.2,10.6
	v7.2h3L83.2,23.5L83.2,23.5z"/>
</svg>
