<svg id="Capa_1" data-name="Capa 1" xmlns="http://www.w3.org/2000/svg" viewBox="0 0 95.83 163.23"><defs><style>.cls-1{fill:#dbc28c;}</style></defs><title>logo</title><polygon class="cls-1" points="54.53 56.38 54.53 57.69 49.81 57.69 49.81 52.97 51.12 52.97 51.12 50.17 45 50.17 45 52.97 46.31 52.97 46.31 57.69 41.6 57.69 41.6 56.38 38.8 56.38 38.8 62.49 41.6 62.49 41.6 61.19 46.31 61.19 46.31 65.9 45 65.9 45 68.7 51.12 68.7 51.12 65.9 49.81 65.9 49.81 61.19 54.53 61.19 54.53 62.49 57.33 62.49 57.33 56.38 54.53 56.38"/><polygon class="cls-1" points="54.53 111.94 54.53 113.25 49.81 113.25 49.81 108.53 51.12 108.53 51.12 105.73 45 105.73 45 108.53 46.31 108.53 46.31 113.25 41.6 113.25 41.6 111.94 38.8 111.94 38.8 118.05 41.6 118.05 41.6 116.74 46.31 116.74 46.31 121.46 45 121.46 45 124.26 51.12 124.26 51.12 121.46 49.81 121.46 49.81 116.74 54.53 116.74 54.53 118.05 57.33 118.05 57.33 111.94 54.53 111.94"/><polygon class="cls-1" points="30.55 84.39 30.55 85.7 25.83 85.7 25.83 80.98 27.14 80.98 27.14 78.18 21.02 78.18 21.02 80.98 22.34 80.98 22.34 85.7 17.62 85.7 17.62 84.39 14.82 84.39 14.82 90.5 17.62 90.5 17.62 89.19 22.34 89.19 22.34 93.91 21.02 93.91 21.02 96.71 27.14 96.71 27.14 93.91 25.83 93.91 25.83 89.19 30.55 89.19 30.55 90.5 33.35 90.5 33.35 84.39 30.55 84.39"/><polygon class="cls-1" points="54.53 84.39 54.53 85.7 49.81 85.7 49.81 80.98 51.12 80.98 51.12 78.18 45 78.18 45 80.98 46.31 80.98 46.31 85.7 41.6 85.7 41.6 84.39 38.8 84.39 38.8 90.5 41.6 90.5 41.6 89.19 46.31 89.19 46.31 93.91 45 93.91 45 96.71 51.12 96.71 51.12 93.91 49.81 93.91 49.81 89.19 54.53 89.19 54.53 90.5 57.33 90.5 57.33 84.39 54.53 84.39"/><path class="cls-1" d="M-658.53,1951.48c-42.12,0-48-41.88-48-42.31v-69.26h95.83v69.25C-610.82,1909.59-616.4,1951.48-658.53,1951.48Zm-44.57-42.65c0.38,2.71,6.19,39.15,44.57,39.15s43.92-36.48,44.28-39.14v-65.43H-703.1v65.42Z" transform="translate(706.59 -1808.65)"/><polygon class="cls-1" points="30.55 56.38 30.55 57.69 25.83 57.69 25.83 52.97 27.14 52.97 27.14 50.17 21.02 50.17 21.02 52.97 22.34 52.97 22.34 57.69 17.62 57.69 17.62 56.38 14.82 56.38 14.82 62.49 17.62 62.49 17.62 61.19 22.34 61.19 22.34 65.9 21.02 65.9 21.02 68.7 27.14 68.7 27.14 65.9 25.83 65.9 25.83 61.19 30.55 61.19 30.55 62.49 33.35 62.49 33.35 56.38 30.55 56.38"/><g id="_Grupo_" data-name="&lt;Grupo&gt;"><polygon class="cls-1" points="78.05 56.38 78.05 57.69 73.33 57.69 73.33 52.97 74.64 52.97 74.64 50.17 68.52 50.17 68.52 52.97 69.83 52.97 69.83 57.69 65.12 57.69 65.12 56.38 62.32 56.38 62.32 62.49 65.12 62.49 65.12 61.19 69.83 61.19 69.83 65.9 68.52 65.9 68.52 68.7 74.64 68.7 74.64 65.9 73.33 65.9 73.33 61.19 78.05 61.19 78.05 62.49 80.84 62.49 80.84 56.38 78.05 56.38"/></g><g id="_Grupo_2" data-name="&lt;Grupo&gt;"><polygon class="cls-1" points="78.05 84.39 78.05 85.7 73.33 85.7 73.33 80.98 74.64 80.98 74.64 78.18 68.52 78.18 68.52 80.98 69.83 80.98 69.83 85.7 65.12 85.7 65.12 84.39 62.32 84.39 62.32 90.5 65.12 90.5 65.12 89.19 69.83 89.19 69.83 93.91 68.52 93.91 68.52 96.71 74.64 96.71 74.64 93.91 73.33 93.91 73.33 89.19 78.05 89.19 78.05 90.5 80.84 90.5 80.84 84.39 78.05 84.39"/></g><polygon class="cls-1" points="48.02 142.2 51.21 142.2 49.62 145.98 48.02 149.76 46.43 145.98 44.84 142.2 48.02 142.2"/><path class="cls-1" d="M-700.19,1965h0.68l3,6.8h-1l-0.9-2h-2.88l-0.84,2h-1Zm1.42,3.93-1.09-2.45-1,2.45h2.1Z" transform="translate(706.59 -1808.65)"/><path class="cls-1" d="M-688.49,1971.8h-2.29V1965H-689a3.1,3.1,0,0,1,1.31.22,1.69,1.69,0,0,1,.72.62,1.69,1.69,0,0,1,.25.91,1.47,1.47,0,0,1-1,1.43,2.1,2.1,0,0,1,1.18.61,1.59,1.59,0,0,1,.44,1.12,1.65,1.65,0,0,1-.27.92,1.93,1.93,0,0,1-.78.66A2.87,2.87,0,0,1-688.49,1971.8Zm-0.49-5.9h-0.83v2h0.64a1.64,1.64,0,0,0,1.1-.29,1,1,0,0,0,.33-0.77A1,1,0,0,0-689,1965.9Zm0.07,2.89h-0.91v2.14h1a3.1,3.1,0,0,0,1.08-.12,1,1,0,0,0,.45-0.38,1,1,0,0,0,.17-0.56,1,1,0,0,0-.18-0.57,1.08,1.08,0,0,0-.52-0.38A3.23,3.23,0,0,0-688.91,1968.8Z" transform="translate(706.59 -1808.65)"/><path class="cls-1" d="M-676.93,1964.94a3.64,3.64,0,0,1,2.61,1,3.29,3.29,0,0,1,1,2.49,3.24,3.24,0,0,1-1.05,2.47,3.74,3.74,0,0,1-2.65,1,3.53,3.53,0,0,1-2.55-1,3.26,3.26,0,0,1-1-2.46,3.34,3.34,0,0,1,1-2.51A3.58,3.58,0,0,1-676.93,1964.94Zm0,0.92a2.63,2.63,0,0,0-1.91.73,2.47,2.47,0,0,0-.75,1.85,2.43,2.43,0,0,0,.75,1.82,2.59,2.59,0,0,0,1.88.73,2.59,2.59,0,0,0,1.89-.74,2.47,2.47,0,0,0,.76-1.84,2.42,2.42,0,0,0-.76-1.81A2.57,2.57,0,0,0-676.89,1965.86Z" transform="translate(706.59 -1808.65)"/><path class="cls-1" d="M-663.48,1968.47h2.27v2.86a6.18,6.18,0,0,1-2.48.54,3.68,3.68,0,0,1-2.68-1,3.24,3.24,0,0,1-1-2.42,3.36,3.36,0,0,1,1-2.52,3.6,3.6,0,0,1,2.61-1,4.63,4.63,0,0,1,1.08.12,8.85,8.85,0,0,1,1.3.45v1a4.75,4.75,0,0,0-2.4-.7,2.55,2.55,0,0,0-1.87.75,2.51,2.51,0,0,0-.76,1.85,2.5,2.5,0,0,0,.76,1.88,2.7,2.7,0,0,0,2,.73,4.59,4.59,0,0,0,1.39-.27l0.09,0v-1.41h-1.3v-0.86Z" transform="translate(706.59 -1808.65)"/><path class="cls-1" d="M-652.68,1965H-652l3,6.8h-1l-0.9-2h-2.88l-0.84,2h-1Zm1.42,3.93-1.09-2.45-1,2.45h2.1Z" transform="translate(706.59 -1808.65)"/><path class="cls-1" d="M-643.27,1971.79V1965H-641a4.82,4.82,0,0,1,2.18.41,3.13,3.13,0,0,1,1.28,1.22,3.4,3.4,0,0,1,.47,1.75,3.3,3.3,0,0,1-.26,1.3,3.28,3.28,0,0,1-.74,1.09,3.29,3.29,0,0,1-1.15.73,3.44,3.44,0,0,1-.7.2,9.58,9.58,0,0,1-1.22.05h-2.14Zm2.18-5.89h-1.21v5h1.24a5,5,0,0,0,1.13-.1,2.63,2.63,0,0,0,.67-0.25,2.29,2.29,0,0,0,.49-0.38,2.51,2.51,0,0,0,.72-1.83,2.32,2.32,0,0,0-.74-1.77,2.32,2.32,0,0,0-.62-0.42,2.63,2.63,0,0,0-.67-0.22A6.94,6.94,0,0,0-641.09,1965.9Z" transform="translate(706.59 -1808.65)"/><path class="cls-1" d="M-627.57,1964.94a3.64,3.64,0,0,1,2.61,1,3.29,3.29,0,0,1,1,2.49,3.24,3.24,0,0,1-1.05,2.47,3.74,3.74,0,0,1-2.65,1,3.53,3.53,0,0,1-2.55-1,3.26,3.26,0,0,1-1-2.46,3.34,3.34,0,0,1,1-2.51A3.58,3.58,0,0,1-627.57,1964.94Zm0,0.92a2.63,2.63,0,0,0-1.91.73,2.47,2.47,0,0,0-.75,1.85,2.43,2.43,0,0,0,.75,1.82,2.59,2.59,0,0,0,1.88.73,2.59,2.59,0,0,0,1.89-.74,2.47,2.47,0,0,0,.76-1.84,2.42,2.42,0,0,0-.76-1.81A2.57,2.57,0,0,0-627.53,1965.86Z" transform="translate(706.59 -1808.65)"/><path class="cls-1" d="M-616.1,1969l-0.74-.45a3.36,3.36,0,0,1-1-.83,1.57,1.57,0,0,1-.29-0.94,1.66,1.66,0,0,1,.55-1.3,2.07,2.07,0,0,1,1.44-.5,2.72,2.72,0,0,1,1.55.48v1.1a2.24,2.24,0,0,0-1.57-.7,1.3,1.3,0,0,0-.78.22,0.66,0.66,0,0,0-.31.56,0.86,0.86,0,0,0,.23.57,2.82,2.82,0,0,0,.72.56l0.74,0.44a2.16,2.16,0,0,1,1.24,1.88,1.72,1.72,0,0,1-.54,1.32,2,2,0,0,1-1.42.51,3,3,0,0,1-1.82-.62V1970a2.28,2.28,0,0,0,1.82,1,1.13,1.13,0,0,0,.76-0.25,0.79,0.79,0,0,0,.3-0.63A1.51,1.51,0,0,0-616.1,1969Z" transform="translate(706.59 -1808.65)"/><path class="cls-1" d="M-689.55,1832.2h-10v-2.83h2.8v-17.83h-2.8v-2.83h9.53c4,0,6.82,2.47,6.82,6a5.68,5.68,0,0,1-2.75,4.85,6.1,6.1,0,0,1,3.76,5.61C-682.24,1829.38-685.17,1832.2-689.55,1832.2Zm-3.83-2.76h3.31a3.92,3.92,0,0,0,4.29-4.16c0-2.81-2.19-4.06-4.35-4.06h-3.25v8.22Zm0-11h3.12a3.43,3.43,0,0,0,3.61-3.7c0-2-1.48-3.28-3.77-3.28h-3v7Z" transform="translate(706.59 -1808.65)"/><path class="cls-1" d="M-646.81,1832.2h-8.69v-2.83h2.76l-1.75-4.9h-8.13l-1.75,4.9h2.76v2.83h-8.49v-2.83h2.29l7.66-20.72h3.47l7.56,20.72h2.32v2.83Zm-14.79-10.48h6.1l-3-8.86Z" transform="translate(706.59 -1808.65)"/><path class="cls-1" d="M-623.36,1832.2h-9.47v-2.83h3v-7.16l-6.37-10.67h-2.65v-2.83h8.72v2.76h-2.28l4.45,7.41,4.34-7.41h-2.26v-2.76h8.3v2.83h-2.65l-6.18,10.61v7.23h3v2.83Z" transform="translate(706.59 -1808.65)"/></svg>